<svg width="275" height="126" viewBox="0 0 275 126" fill="none" xmlns="http://www.w3.org/2000/svg">
<rect width="275" height="126" rx="10" fill="white"/>
<path d="M38.94 31C38.564 31 38.296 30.904 38.136 30.712C37.976 30.52 37.876 30.28 37.836 29.992H37.776C37.64 30.352 37.42 30.636 37.116 30.844C36.82 31.044 36.42 31.144 35.916 31.144C35.268 31.144 34.752 30.976 34.368 30.64C33.984 30.304 33.792 29.844 33.792 29.26C33.792 28.684 34 28.24 34.416 27.928C34.84 27.616 35.52 27.46 36.456 27.46H37.776V26.848C37.776 26.392 37.648 26.052 37.392 25.828C37.136 25.596 36.772 25.48 36.3 25.48C35.884 25.48 35.544 25.564 35.28 25.732C35.016 25.892 34.804 26.112 34.644 26.392L33.996 25.912C34.076 25.752 34.184 25.596 34.32 25.444C34.456 25.292 34.624 25.16 34.824 25.048C35.024 24.928 35.252 24.836 35.508 24.772C35.764 24.7 36.048 24.664 36.36 24.664C37.088 24.664 37.664 24.848 38.088 25.216C38.52 25.584 38.736 26.096 38.736 26.752V30.16H39.6V31H38.94ZM36.084 30.34C36.332 30.34 36.556 30.312 36.756 30.256C36.964 30.192 37.144 30.112 37.296 30.016C37.448 29.912 37.564 29.792 37.644 29.656C37.732 29.512 37.776 29.36 37.776 29.2V28.18H36.456C35.88 28.18 35.46 28.26 35.196 28.42C34.932 28.58 34.8 28.812 34.8 29.116V29.368C34.8 29.688 34.912 29.932 35.136 30.1C35.368 30.26 35.684 30.34 36.084 30.34ZM48.5306 24.808H49.4906V25.816H49.5386C49.9386 25.048 50.5746 24.664 51.4466 24.664C52.2066 24.664 52.7986 24.948 53.2226 25.516C53.6546 26.084 53.8706 26.88 53.8706 27.904C53.8706 28.928 53.6546 29.724 53.2226 30.292C52.7986 30.86 52.2066 31.144 51.4466 31.144C50.5746 31.144 49.9386 30.76 49.5386 29.992H49.4906V33.4H48.5306V24.808ZM51.0746 30.292C51.6346 30.292 52.0666 30.124 52.3706 29.788C52.6826 29.444 52.8386 28.992 52.8386 28.432V27.376C52.8386 26.816 52.6826 26.368 52.3706 26.032C52.0666 25.688 51.6346 25.516 51.0746 25.516C50.8586 25.516 50.6546 25.544 50.4626 25.6C50.2706 25.656 50.1026 25.74 49.9586 25.852C49.8146 25.956 49.6986 26.088 49.6106 26.248C49.5306 26.4 49.4906 26.58 49.4906 26.788V29.02C49.4906 29.228 49.5306 29.412 49.6106 29.572C49.6986 29.724 49.8146 29.856 49.9586 29.968C50.1026 30.072 50.2706 30.152 50.4626 30.208C50.6546 30.264 50.8586 30.292 51.0746 30.292ZM55.5099 30.184H57.3219V25.624H55.5099V24.808H58.2819V26.368H58.3419C58.4699 25.88 58.7099 25.5 59.0619 25.228C59.4219 24.948 59.8779 24.808 60.4299 24.808H61.2939V25.768H60.1299C59.5779 25.768 59.1299 25.928 58.7859 26.248C58.4499 26.568 58.2819 26.988 58.2819 27.508V30.184H60.6819V31H55.5099V30.184ZM65.3813 31.144C64.9493 31.144 64.5573 31.068 64.2053 30.916C63.8613 30.764 63.5653 30.548 63.3173 30.268C63.0773 29.98 62.8933 29.64 62.7653 29.248C62.6373 28.848 62.5732 28.4 62.5732 27.904C62.5732 27.416 62.6373 26.972 62.7653 26.572C62.8933 26.172 63.0773 25.832 63.3173 25.552C63.5653 25.264 63.8613 25.044 64.2053 24.892C64.5573 24.74 64.9493 24.664 65.3813 24.664C65.8133 24.664 66.2013 24.74 66.5453 24.892C66.8973 25.044 67.1933 25.264 67.4333 25.552C67.6813 25.832 67.8693 26.172 67.9973 26.572C68.1253 26.972 68.1893 27.416 68.1893 27.904C68.1893 28.4 68.1253 28.848 67.9973 29.248C67.8693 29.64 67.6813 29.98 67.4333 30.268C67.1933 30.548 66.8973 30.764 66.5453 30.916C66.2013 31.068 65.8133 31.144 65.3813 31.144ZM65.3813 30.316C65.9173 30.316 66.3493 30.156 66.6773 29.836C67.0053 29.516 67.1693 29.02 67.1693 28.348V27.46C67.1693 26.788 67.0053 26.292 66.6773 25.972C66.3493 25.652 65.9173 25.492 65.3813 25.492C64.8453 25.492 64.4133 25.652 64.0853 25.972C63.7573 26.292 63.5933 26.788 63.5933 27.46V28.348C63.5933 29.02 63.7573 29.516 64.0853 29.836C64.4133 30.156 64.8453 30.316 65.3813 30.316ZM70.2006 32.584H73.2006V25.624H70.0926V24.808H74.1606V31.984C74.1606 32.4 74.0486 32.74 73.8246 33.004C73.6086 33.268 73.2646 33.4 72.7926 33.4H70.2006V32.584ZM73.6806 23.44C73.4006 23.44 73.2046 23.384 73.0926 23.272C72.9806 23.152 72.9246 23.004 72.9246 22.828V22.636C72.9246 22.46 72.9806 22.316 73.0926 22.204C73.2046 22.084 73.4006 22.024 73.6806 22.024C73.9606 22.024 74.1566 22.084 74.2686 22.204C74.3806 22.316 74.4366 22.46 74.4366 22.636V22.828C74.4366 23.004 74.3806 23.152 74.2686 23.272C74.1566 23.384 73.9606 23.44 73.6806 23.44ZM79.8799 31.144C79.4319 31.144 79.0279 31.068 78.6679 30.916C78.3159 30.764 78.0119 30.548 77.7559 30.268C77.5079 29.98 77.3159 29.64 77.1799 29.248C77.0439 28.848 76.9759 28.404 76.9759 27.916C76.9759 27.42 77.0439 26.972 77.1799 26.572C77.3239 26.172 77.5199 25.832 77.7679 25.552C78.0159 25.264 78.3119 25.044 78.6559 24.892C79.0079 24.74 79.3959 24.664 79.8199 24.664C80.2359 24.664 80.6119 24.74 80.9479 24.892C81.2919 25.044 81.5839 25.256 81.8239 25.528C82.0639 25.792 82.2479 26.108 82.3759 26.476C82.5039 26.844 82.5679 27.248 82.5679 27.688V28.144H77.9839V28.432C77.9839 28.704 78.0279 28.956 78.1159 29.188C78.2039 29.42 78.3279 29.62 78.4879 29.788C78.6559 29.956 78.8559 30.088 79.0879 30.184C79.3279 30.272 79.5919 30.316 79.8799 30.316C80.2959 30.316 80.6559 30.22 80.9599 30.028C81.2639 29.836 81.4959 29.572 81.6559 29.236L82.3639 29.716C82.1799 30.132 81.8719 30.476 81.4399 30.748C81.0159 31.012 80.4959 31.144 79.8799 31.144ZM79.8199 25.456C79.5559 25.456 79.3119 25.504 79.0879 25.6C78.8639 25.696 78.6679 25.828 78.4999 25.996C78.3399 26.164 78.2119 26.364 78.1159 26.596C78.0279 26.82 77.9839 27.068 77.9839 27.34V27.424H81.5359V27.292C81.5359 27.02 81.4919 26.772 81.4039 26.548C81.3239 26.324 81.2079 26.132 81.0559 25.972C80.9119 25.804 80.7319 25.676 80.5159 25.588C80.3079 25.5 80.0759 25.456 79.8199 25.456ZM87.1832 31.144C86.7352 31.144 86.3352 31.068 85.9832 30.916C85.6392 30.756 85.3472 30.536 85.1072 30.256C84.8672 29.976 84.6832 29.636 84.5552 29.236C84.4352 28.836 84.3752 28.392 84.3752 27.904C84.3752 27.416 84.4392 26.972 84.5672 26.572C84.6952 26.172 84.8792 25.832 85.1192 25.552C85.3592 25.264 85.6512 25.044 85.9952 24.892C86.3392 24.74 86.7312 24.664 87.1712 24.664C87.7712 24.664 88.2592 24.796 88.6352 25.06C89.0112 25.324 89.2872 25.668 89.4632 26.092L88.6952 26.5C88.5832 26.18 88.3952 25.932 88.1312 25.756C87.8752 25.58 87.5552 25.492 87.1712 25.492C86.8912 25.492 86.6392 25.54 86.4152 25.636C86.1992 25.724 86.0152 25.852 85.8632 26.02C85.7112 26.188 85.5952 26.388 85.5152 26.62C85.4432 26.852 85.4072 27.104 85.4072 27.376V28.432C85.4072 28.704 85.4432 28.956 85.5152 29.188C85.5952 29.42 85.7112 29.62 85.8632 29.788C86.0152 29.956 86.2032 30.088 86.4272 30.184C86.6512 30.272 86.9072 30.316 87.1952 30.316C87.6112 30.316 87.9552 30.22 88.2272 30.028C88.4992 29.836 88.7152 29.572 88.8752 29.236L89.5592 29.704C89.3752 30.12 89.0872 30.464 88.6952 30.736C88.3112 31.008 87.8072 31.144 87.1832 31.144ZM94.4625 31C93.9905 31 93.6425 30.868 93.4185 30.604C93.2025 30.34 93.0945 30 93.0945 29.584V25.624H91.0305V24.808H92.5665C92.7745 24.808 92.9185 24.768 92.9985 24.688C93.0865 24.6 93.1305 24.452 93.1305 24.244V22.624H94.0545V24.808H96.8745V25.624H94.0545V30.184H96.8745V31H94.4625ZM106.093 22.12H107.053V25.816H107.101C107.501 25.048 108.137 24.664 109.009 24.664C109.769 24.664 110.361 24.948 110.785 25.516C111.217 26.084 111.433 26.88 111.433 27.904C111.433 28.928 111.217 29.724 110.785 30.292C110.361 30.86 109.769 31.144 109.009 31.144C108.137 31.144 107.501 30.76 107.101 29.992H107.053V31H106.093V22.12ZM108.637 30.292C109.197 30.292 109.629 30.124 109.933 29.788C110.245 29.444 110.401 28.992 110.401 28.432V27.376C110.401 26.816 110.245 26.368 109.933 26.032C109.629 25.688 109.197 25.516 108.637 25.516C108.421 25.516 108.217 25.544 108.025 25.6C107.833 25.656 107.665 25.74 107.521 25.852C107.377 25.956 107.261 26.088 107.173 26.248C107.093 26.4 107.053 26.58 107.053 26.788V29.02C107.053 29.228 107.093 29.412 107.173 29.572C107.261 29.724 107.377 29.856 107.521 29.968C107.665 30.072 107.833 30.152 108.025 30.208C108.217 30.264 108.421 30.292 108.637 30.292ZM117.752 24.808H118.712L115.64 32.356C115.568 32.532 115.488 32.684 115.4 32.812C115.312 32.948 115.208 33.056 115.088 33.136C114.968 33.224 114.824 33.288 114.656 33.328C114.488 33.376 114.288 33.4 114.056 33.4H113.144V32.584H114.584L115.28 30.88L112.784 24.808H113.768L114.812 27.4L115.736 29.752H115.784L116.708 27.4L117.752 24.808Z" fill="black"/>
<path d="M101 66.8H100.45V90H94.05V55.1H103.05L111 78.3H111.55V55.1H117.95V90H108.95L101 66.8ZM136.78 90.6C132.114 90.6 128.647 89.0333 126.38 85.9C124.147 82.7333 123.03 78.2833 123.03 72.55C123.03 66.8167 124.147 62.3833 126.38 59.25C128.647 56.0833 132.114 54.5 136.78 54.5C138.58 54.5 140.164 54.75 141.53 55.25C142.93 55.7167 144.13 56.3833 145.13 57.25C146.13 58.1167 146.947 59.1667 147.58 60.4C148.247 61.6333 148.764 63.0167 149.13 64.55L142.13 66.25C141.93 65.4167 141.697 64.65 141.43 63.95C141.164 63.25 140.814 62.65 140.38 62.15C139.98 61.65 139.464 61.2667 138.83 61C138.23 60.7 137.497 60.55 136.63 60.55C134.597 60.55 133.147 61.35 132.28 62.95C131.447 64.5167 131.03 66.7 131.03 69.5V75.6C131.03 78.4 131.447 80.6 132.28 82.2C133.147 83.7667 134.597 84.55 136.63 84.55C138.364 84.55 139.614 84.0167 140.38 82.95C141.18 81.8833 141.764 80.5167 142.13 78.85L149.13 80.55C148.764 82.0833 148.247 83.4667 147.58 84.7C146.947 85.9333 146.13 87 145.13 87.9C144.13 88.7667 142.93 89.4333 141.53 89.9C140.164 90.3667 138.58 90.6 136.78 90.6ZM155.561 90V55.1H163.111V83.85H178.111V90H155.561ZM195.391 90.6C192.458 90.6 189.908 90.1167 187.741 89.15C185.575 88.1833 183.825 86.8667 182.491 85.2L186.841 80.4C188.108 81.8 189.491 82.8333 190.991 83.5C192.525 84.1667 194.075 84.5 195.641 84.5C197.441 84.5 198.808 84.1 199.741 83.3C200.675 82.5 201.141 81.35 201.141 79.85C201.141 78.6167 200.775 77.6833 200.041 77.05C199.341 76.4167 198.141 75.9667 196.441 75.7L192.791 75.1C189.658 74.5667 187.391 73.4167 185.991 71.65C184.591 69.85 183.891 67.6667 183.891 65.1C183.891 61.7333 184.991 59.1333 187.191 57.3C189.391 55.4333 192.475 54.5 196.441 54.5C199.141 54.5 201.491 54.9167 203.491 55.75C205.491 56.5833 207.108 57.7167 208.341 59.15L204.091 63.9C203.158 62.8667 202.058 62.0667 200.791 61.5C199.525 60.9 198.091 60.6 196.491 60.6C193.125 60.6 191.441 61.9833 191.441 64.75C191.441 65.95 191.808 66.85 192.541 67.45C193.308 68.05 194.541 68.5 196.241 68.8L199.891 69.45C202.725 69.95 204.908 71.0167 206.441 72.65C207.975 74.2833 208.741 76.4833 208.741 79.25C208.741 80.8833 208.458 82.4 207.891 83.8C207.325 85.1667 206.475 86.3667 205.341 87.4C204.208 88.4 202.808 89.1833 201.141 89.75C199.508 90.3167 197.591 90.6 195.391 90.6ZM214.922 90V55.1H237.222V61.25H222.422V69.25H236.722V75.4H222.422V83.85H237.222V90H214.922Z" fill="black"/>
<path d="M158.35 104.144C157.902 104.144 157.498 104.068 157.138 103.916C156.786 103.764 156.482 103.548 156.226 103.268C155.978 102.98 155.786 102.64 155.65 102.248C155.514 101.848 155.446 101.404 155.446 100.916C155.446 100.42 155.514 99.972 155.65 99.572C155.794 99.172 155.99 98.832 156.238 98.552C156.486 98.264 156.782 98.044 157.126 97.892C157.478 97.74 157.866 97.664 158.29 97.664C158.706 97.664 159.082 97.74 159.418 97.892C159.762 98.044 160.054 98.256 160.294 98.528C160.534 98.792 160.718 99.108 160.846 99.476C160.974 99.844 161.038 100.248 161.038 100.688V101.144H156.454V101.432C156.454 101.704 156.498 101.956 156.586 102.188C156.674 102.42 156.798 102.62 156.958 102.788C157.126 102.956 157.326 103.088 157.558 103.184C157.798 103.272 158.062 103.316 158.35 103.316C158.766 103.316 159.126 103.22 159.43 103.028C159.734 102.836 159.966 102.572 160.126 102.236L160.834 102.716C160.65 103.132 160.342 103.476 159.91 103.748C159.486 104.012 158.966 104.144 158.35 104.144ZM158.29 98.456C158.026 98.456 157.782 98.504 157.558 98.6C157.334 98.696 157.138 98.828 156.97 98.996C156.81 99.164 156.682 99.364 156.586 99.596C156.498 99.82 156.454 100.068 156.454 100.34V100.424H160.006V100.292C160.006 100.02 159.962 99.772 159.874 99.548C159.794 99.324 159.678 99.132 159.526 98.972C159.382 98.804 159.202 98.676 158.986 98.588C158.778 98.5 158.546 98.456 158.29 98.456ZM169.638 102.992H169.59C169.19 103.76 168.554 104.144 167.682 104.144C166.922 104.144 166.326 103.86 165.894 103.292C165.47 102.724 165.258 101.928 165.258 100.904C165.258 99.88 165.47 99.084 165.894 98.516C166.326 97.948 166.922 97.664 167.682 97.664C168.554 97.664 169.19 98.048 169.59 98.816H169.638V95.12H170.598V104H169.638V102.992ZM168.054 103.292C168.27 103.292 168.474 103.264 168.666 103.208C168.858 103.152 169.026 103.072 169.17 102.968C169.314 102.856 169.426 102.724 169.506 102.572C169.594 102.412 169.638 102.228 169.638 102.02V99.788C169.638 99.58 169.594 99.4 169.506 99.248C169.426 99.088 169.314 98.956 169.17 98.852C169.026 98.74 168.858 98.656 168.666 98.6C168.474 98.544 168.27 98.516 168.054 98.516C167.494 98.516 167.058 98.688 166.746 99.032C166.442 99.368 166.29 99.816 166.29 100.376V101.432C166.29 101.992 166.442 102.444 166.746 102.788C167.058 103.124 167.494 103.292 168.054 103.292ZM179.497 102.992H179.449C179.385 103.144 179.305 103.292 179.209 103.436C179.113 103.572 178.993 103.692 178.849 103.796C178.713 103.9 178.549 103.984 178.357 104.048C178.165 104.112 177.941 104.144 177.685 104.144C177.037 104.144 176.517 103.94 176.125 103.532C175.733 103.116 175.537 102.532 175.537 101.78V97.808H176.497V101.612C176.497 102.18 176.621 102.604 176.869 102.884C177.117 103.156 177.481 103.292 177.961 103.292C178.153 103.292 178.341 103.268 178.525 103.22C178.709 103.172 178.873 103.1 179.017 103.004C179.161 102.908 179.277 102.788 179.365 102.644C179.453 102.492 179.497 102.312 179.497 102.104V97.808H180.457V104H179.497V102.992ZM188.144 104.144C187.696 104.144 187.296 104.068 186.944 103.916C186.6 103.756 186.308 103.536 186.068 103.256C185.828 102.976 185.644 102.636 185.516 102.236C185.396 101.836 185.336 101.392 185.336 100.904C185.336 100.416 185.4 99.972 185.528 99.572C185.656 99.172 185.84 98.832 186.08 98.552C186.32 98.264 186.612 98.044 186.956 97.892C187.3 97.74 187.692 97.664 188.132 97.664C188.732 97.664 189.22 97.796 189.596 98.06C189.972 98.324 190.248 98.668 190.424 99.092L189.656 99.5C189.544 99.18 189.356 98.932 189.092 98.756C188.836 98.58 188.516 98.492 188.132 98.492C187.852 98.492 187.6 98.54 187.376 98.636C187.16 98.724 186.976 98.852 186.824 99.02C186.672 99.188 186.556 99.388 186.476 99.62C186.404 99.852 186.368 100.104 186.368 100.376V101.432C186.368 101.704 186.404 101.956 186.476 102.188C186.556 102.42 186.672 102.62 186.824 102.788C186.976 102.956 187.164 103.088 187.388 103.184C187.612 103.272 187.868 103.316 188.156 103.316C188.572 103.316 188.916 103.22 189.188 103.028C189.46 102.836 189.676 102.572 189.836 102.236L190.52 102.704C190.336 103.12 190.048 103.464 189.656 103.736C189.272 104.008 188.768 104.144 188.144 104.144ZM200.163 104C199.787 104 199.519 103.904 199.359 103.712C199.199 103.52 199.099 103.28 199.059 102.992H198.999C198.863 103.352 198.643 103.636 198.339 103.844C198.043 104.044 197.643 104.144 197.139 104.144C196.491 104.144 195.975 103.976 195.591 103.64C195.207 103.304 195.015 102.844 195.015 102.26C195.015 101.684 195.223 101.24 195.639 100.928C196.063 100.616 196.743 100.46 197.679 100.46H198.999V99.848C198.999 99.392 198.871 99.052 198.615 98.828C198.359 98.596 197.995 98.48 197.523 98.48C197.107 98.48 196.767 98.564 196.503 98.732C196.239 98.892 196.027 99.112 195.867 99.392L195.219 98.912C195.299 98.752 195.407 98.596 195.543 98.444C195.679 98.292 195.847 98.16 196.047 98.048C196.247 97.928 196.475 97.836 196.731 97.772C196.987 97.7 197.271 97.664 197.583 97.664C198.311 97.664 198.887 97.848 199.311 98.216C199.743 98.584 199.959 99.096 199.959 99.752V103.16H200.823V104H200.163ZM197.307 103.34C197.555 103.34 197.779 103.312 197.979 103.256C198.187 103.192 198.367 103.112 198.519 103.016C198.671 102.912 198.787 102.792 198.867 102.656C198.955 102.512 198.999 102.36 198.999 102.2V101.18H197.679C197.103 101.18 196.683 101.26 196.419 101.42C196.155 101.58 196.023 101.812 196.023 102.116V102.368C196.023 102.688 196.135 102.932 196.359 103.1C196.591 103.26 196.907 103.34 197.307 103.34ZM208.019 104C207.547 104 207.199 103.868 206.975 103.604C206.759 103.34 206.651 103 206.651 102.584V98.624H204.587V97.808H206.123C206.331 97.808 206.475 97.768 206.555 97.688C206.643 97.6 206.687 97.452 206.687 97.244V95.624H207.611V97.808H210.431V98.624H207.611V103.184H210.431V104H208.019ZM217.998 96.44C217.718 96.44 217.522 96.384 217.41 96.272C217.298 96.152 217.242 96.004 217.242 95.828V95.636C217.242 95.46 217.298 95.316 217.41 95.204C217.522 95.084 217.718 95.024 217.998 95.024C218.278 95.024 218.474 95.084 218.586 95.204C218.698 95.316 218.754 95.46 218.754 95.636V95.828C218.754 96.004 218.698 96.152 218.586 96.272C218.474 96.384 218.278 96.44 217.998 96.44ZM215.286 103.184H217.518V98.624H215.286V97.808H218.478V103.184H220.566V104H215.286V103.184ZM227.509 104.144C227.077 104.144 226.685 104.068 226.333 103.916C225.989 103.764 225.693 103.548 225.445 103.268C225.205 102.98 225.021 102.64 224.893 102.248C224.765 101.848 224.701 101.4 224.701 100.904C224.701 100.416 224.765 99.972 224.893 99.572C225.021 99.172 225.205 98.832 225.445 98.552C225.693 98.264 225.989 98.044 226.333 97.892C226.685 97.74 227.077 97.664 227.509 97.664C227.941 97.664 228.329 97.74 228.673 97.892C229.025 98.044 229.321 98.264 229.561 98.552C229.809 98.832 229.997 99.172 230.125 99.572C230.253 99.972 230.317 100.416 230.317 100.904C230.317 101.4 230.253 101.848 230.125 102.248C229.997 102.64 229.809 102.98 229.561 103.268C229.321 103.548 229.025 103.764 228.673 103.916C228.329 104.068 227.941 104.144 227.509 104.144ZM227.509 103.316C228.045 103.316 228.477 103.156 228.805 102.836C229.133 102.516 229.297 102.02 229.297 101.348V100.46C229.297 99.788 229.133 99.292 228.805 98.972C228.477 98.652 228.045 98.492 227.509 98.492C226.973 98.492 226.541 98.652 226.213 98.972C225.885 99.292 225.721 99.788 225.721 100.46V101.348C225.721 102.02 225.885 102.516 226.213 102.836C226.541 103.156 226.973 103.316 227.509 103.316ZM234.981 104V97.808H235.941V98.816H235.989C236.053 98.664 236.133 98.52 236.229 98.384C236.325 98.24 236.441 98.116 236.577 98.012C236.721 97.908 236.889 97.824 237.081 97.76C237.273 97.696 237.497 97.664 237.753 97.664C238.401 97.664 238.921 97.872 239.313 98.288C239.705 98.696 239.901 99.276 239.901 100.028V104H238.941V100.196C238.941 99.628 238.817 99.208 238.569 98.936C238.321 98.656 237.957 98.516 237.477 98.516C237.285 98.516 237.097 98.54 236.913 98.588C236.729 98.636 236.565 98.708 236.421 98.804C236.277 98.9 236.161 99.024 236.073 99.176C235.985 99.328 235.941 99.504 235.941 99.704V104H234.981Z" fill="black"/>
<g clip-path="url(#clip0_1_2)">
<path d="M54.5264 49.5232C55.8023 49.0643 57.1977 49.0643 58.4828 49.5232L76.1078 55.8205C78.4395 56.6559 80 58.8682 80 61.3559V83.6441C80 86.1227 78.4395 88.3441 76.0986 89.1795L58.4736 95.4768C57.1977 95.9357 55.8023 95.9357 54.5172 95.4768L36.8922 89.1795C34.5605 88.3441 33 86.1318 33 83.6441V61.3559C33 58.8773 34.5605 56.6559 36.9014 55.8205L54.5264 49.5232ZM56.5 55.0586L40.5549 60.75L56.5 66.4414L72.4451 60.75L56.5 55.0586ZM59.4375 88.8949L74.125 83.6533V66.3955L59.4375 71.6371V88.8949Z" fill="black"/>
</g>
<defs>
<clipPath id="clip0_1_2">
<rect width="47" height="47" fill="white" transform="translate(33 49)"/>
</clipPath>
</defs>
</svg>
